<svg xmlns="http://www.w3.org/2000/svg" xmlns:xlink="http://www.w3.org/1999/xlink" viewBox="0 0 300 300"><defs><style>.cls-1{font-size:67px;font-family:SongMyung-Regular, Song Myung;}.cls-1,.cls-2{fill:rgba(0, 0, 0, 0.5);}.cls-2,.cls-3{stroke:rgba(0, 0, 0, 0.5);stroke-miterlimit:10;}.cls-2{stroke-width:1.39px;}.cls-3{fill:none;}</style><symbol id="Logo-uncuartodecostura" data-name="Logo-uncuartodecostura"><path class="cls-2" d="M134.51,144.4c-.76,2.56-5.33.1-10.2-5.48s-8.2-12.18-7.44-14.74,5.33-.1,10.2,5.49S135.27,141.85,134.51,144.4Zm-21.13-24.56c-1.25,4.07,3.86,14.32,11,22l87.92,93.71c.93,1,1.4-.54.52-1.65L128.69,128.37c-6.9-8.64-14-12.63-15.31-8.53Z"/><path class="cls-3" d="M245.18,154.26a64.59,64.59,0,0,0-47.7-6.83,101.82,101.82,0,0,0-16.75,6.12c-5.45,2.44-10.83,5.08-16.35,7.33a74.75,74.75,0,0,1-17.3,5,39.23,39.23,0,0,1-17.54-1.08,27.69,27.69,0,0,1-14.22-10.62c-3.37-4.91-4.92-10.81-3.37-16.57a20.23,20.23,0,0,1,6.47-10,26.31,26.31,0,0,1,10.8-5.54,35.88,35.88,0,0,1,12.05-.76,58.91,58.91,0,0,1,11.94,2.53s37.53,17.41,17.67,54.29-49,54.51-55.79,54.85"/></symbol></defs><title>Asset 9</title><g id="Layer_2" data-name="Layer 2"><g id="Layer_1-2" data-name="Layer 1"><use width="300" height="300" transform="scale(2.2) translate(-110,-110)" xlink:href="#Logo-uncuartodecostura"/></g></g></svg>