<svg xmlns="http://www.w3.org/2000/svg" xmlns:xlink="http://www.w3.org/1999/xlink" viewBox="0 0 340.29 338.2"><defs><style>.cls-1{font-size:67px;font-family:SongMyung-Regular, Song Myung;}.cls-1,.cls-2{fill:#646264;}.cls-2,.cls-3{stroke:#646264;stroke-miterlimit:10;}.cls-2{stroke-width:1.39px;}.cls-3{fill:none;}</style><symbol id="Logo-uncuartodecostura" data-name="Logo-uncuartodecostura" viewBox="0 0 326.47 324.46"><text class="cls-1" transform="translate(58.74 134.38) rotate(-64.4) scale(1.01 1)">u</text><text class="cls-1" transform="matrix(0.73, -0.7, 0.69, 0.72, 74.93, 100.16)">n</text><text class="cls-1" transform="matrix(0.88, -0.49, 0.49, 0.87, 104.35, 74.08)"> </text><text class="cls-1" transform="matrix(0.96, -0.29, 0.28, 0.96, 117.09, 65.85)">c</text><text class="cls-1" transform="translate(147.54 56.26) rotate(1.82) scale(1.01 1)">u</text><text class="cls-1" transform="translate(185.35 57.72) rotate(20.7) scale(1.01 1)">a</text><text class="cls-1" transform="translate(216.41 69.81) rotate(37.12) scale(1.01 1)">r</text><text class="cls-1" transform="matrix(0.64, 0.78, -0.77, 0.64, 238.68, 87.09)">t</text><text class="cls-1" transform="translate(253.35 103.28) rotate(66.03) scale(1.01 1)">o</text><text class="cls-1" transform="translate(21.98 209.32) rotate(63.61) scale(1.01 1)">d</text><text class="cls-1" transform="matrix(0.7, 0.73, -0.72, 0.69, 43.72, 249.82)">e</text><text class="cls-1" transform="translate(72.62 277.7) rotate(34.45) scale(1.01 1)"> </text><text class="cls-1" transform="translate(88.97 289.37) rotate(23.41) scale(1.01 1)">c</text><text class="cls-1" transform="translate(125.96 304.52) rotate(7.3) scale(1.01 1)">o</text><text class="cls-1" transform="matrix(1, -0.14, 0.13, 0.99, 168.91, 308.66)">s</text><text class="cls-1" transform="translate(202.87 303.19) rotate(-19.55) scale(1.01 1)">t</text><text class="cls-1" transform="matrix(0.84, -0.56, 0.56, 0.83, 229.97, 293.78)">u</text><text class="cls-1" transform="matrix(0.66, -0.77, 0.76, 0.65, 267.1, 266.95)">r</text><text class="cls-1" transform="translate(289.71 239.64) rotate(-64.47) scale(1.01 1)">a</text><path class="cls-2" d="M134.51,144.4c-.76,2.56-5.33.1-10.2-5.48s-8.2-12.18-7.44-14.74,5.33-.1,10.2,5.49S135.27,141.85,134.51,144.4Zm-21.13-24.56c-1.25,4.07,3.86,14.32,11,22l87.92,93.71c.93,1,1.4-.54.52-1.65L128.69,128.37c-6.9-8.64-14-12.63-15.31-8.53Z"/><path class="cls-3" d="M245.18,154.26a64.59,64.59,0,0,0-47.7-6.83,101.82,101.82,0,0,0-16.75,6.12c-5.45,2.44-10.83,5.08-16.35,7.33a74.75,74.75,0,0,1-17.3,5,39.23,39.23,0,0,1-17.54-1.08,27.69,27.69,0,0,1-14.22-10.62c-3.37-4.91-4.92-10.81-3.37-16.57a20.23,20.23,0,0,1,6.47-10,26.31,26.31,0,0,1,10.8-5.54,35.88,35.88,0,0,1,12.05-.76,58.91,58.91,0,0,1,11.94,2.53s37.53,17.41,17.67,54.29-49,54.51-55.79,54.85"/></symbol></defs><title>Asset 9</title><g id="Layer_2" data-name="Layer 2"><g id="Layer_1-2" data-name="Layer 1"><use width="326.47" height="324.46" transform="scale(1.04)" xlink:href="#Logo-uncuartodecostura"/></g></g></svg>